<svg xmlns="http://www.w3.org/2000/svg" width="31.5" height="33.07" viewBox="0 0 31.5 33.07">
  <path id="Icon_open-fork" data-name="Icon open-fork" d="M6.75,0A6.481,6.481,0,0,0,0,6.193a6.181,6.181,0,0,0,4.5,5.821v9.041A6.143,6.143,0,0,0,0,26.877,6.481,6.481,0,0,0,6.75,33.07a6.481,6.481,0,0,0,6.75-6.193,6.056,6.056,0,0,0-3.78-5.532,2.322,2.322,0,0,1,1.53-.661h9c3.69,0,6.75-2.807,6.75-6.193V12.055a6.143,6.143,0,0,0,4.5-5.821A6.481,6.481,0,0,0,24.75.041,6.481,6.481,0,0,0,18,6.234a6.181,6.181,0,0,0,4.5,5.821v2.436a2.142,2.142,0,0,1-2.25,2.064h-9A7.978,7.978,0,0,0,9,16.927V12.014a6.143,6.143,0,0,0,4.5-5.821A6.481,6.481,0,0,0,6.75,0Z" fill="rgba(242,159,5,0.73)"/>
</svg>
