<svg xmlns="http://www.w3.org/2000/svg" width="29" height="29" viewBox="0 0 29 29">
  <path id="Icon_simple-github" data-name="Icon simple-github" d="M14.5.445A14.686,14.686,0,0,0,0,15.314,14.837,14.837,0,0,0,9.914,29.42c.725.14.991-.32.991-.715,0-.353-.012-1.289-.018-2.528C6.854,27.074,6,24.183,6,24.183A3.916,3.916,0,0,0,4.39,22.008c-1.313-.922.1-.9.1-.9a3.05,3.05,0,0,1,2.221,1.531,3.047,3.047,0,0,0,4.223,1.237,3.2,3.2,0,0,1,.918-1.989c-3.22-.372-6.6-1.65-6.6-7.347a5.817,5.817,0,0,1,1.492-3.99,5.411,5.411,0,0,1,.127-3.935s1.214-.4,3.988,1.524a13.344,13.344,0,0,1,7.25,0c2.755-1.923,3.969-1.524,3.969-1.524a5.561,5.561,0,0,1,.145,3.935,5.842,5.842,0,0,1,1.486,3.99c0,5.712-3.389,6.969-6.616,7.335a3.608,3.608,0,0,1,.979,2.751c0,1.99-.018,3.588-.018,4.071,0,.39.254.855,1,.706A14.786,14.786,0,0,0,29,15.314,14.688,14.688,0,0,0,14.5.445" transform="translate(0 -0.445)"/>
</svg>
