<svg xmlns="http://www.w3.org/2000/svg" width="33" height="33" viewBox="0 0 33 33">
  <path id="Icon_simple-github" data-name="Icon simple-github" d="M16.5.445A16.711,16.711,0,0,0,0,17.364,16.883,16.883,0,0,0,11.282,33.416c.825.159,1.128-.364,1.128-.814,0-.4-.014-1.466-.021-2.876-4.59,1.021-5.558-2.27-5.558-2.27A4.456,4.456,0,0,0,5,24.982c-1.495-1.049.116-1.028.116-1.028A3.47,3.47,0,0,1,7.638,25.7,3.467,3.467,0,0,0,12.444,27.1a3.642,3.642,0,0,1,1.045-2.263c-3.664-.423-7.516-1.878-7.516-8.361a6.62,6.62,0,0,1,1.7-4.54,6.157,6.157,0,0,1,.144-4.478S9.2,7.009,12.353,9.2a15.185,15.185,0,0,1,8.25,0c3.135-2.188,4.517-1.734,4.517-1.734a6.328,6.328,0,0,1,.165,4.478,6.647,6.647,0,0,1,1.691,4.54c0,6.5-3.857,7.931-7.528,8.347a4.106,4.106,0,0,1,1.114,3.13c0,2.264-.021,4.083-.021,4.633,0,.444.289.973,1.134.8A16.825,16.825,0,0,0,33,17.364,16.714,16.714,0,0,0,16.5.445" transform="translate(0 -0.445)" fill="#acacac"/>
</svg>
