<svg xmlns="http://www.w3.org/2000/svg" width="33" height="33" viewBox="0 0 33 33">
  <path id="Icon_simple-instagram" data-name="Icon simple-instagram" d="M16.5,0c-4.483,0-5.042.021-6.8.1A12.167,12.167,0,0,0,5.692.866a8.08,8.08,0,0,0-2.923,1.9,8.051,8.051,0,0,0-1.9,2.923A12.131,12.131,0,0,0,.1,9.7c-.082,1.76-.1,2.32-.1,6.8s.021,5.042.1,6.8a12.174,12.174,0,0,0,.767,4.005,8.092,8.092,0,0,0,1.9,2.923,8.069,8.069,0,0,0,2.923,1.9A12.182,12.182,0,0,0,9.7,32.9c1.76.082,2.32.1,6.8.1s5.042-.021,6.8-.1a12.21,12.21,0,0,0,4.005-.767,8.432,8.432,0,0,0,4.826-4.826A12.174,12.174,0,0,0,32.9,23.3c.082-1.76.1-2.32.1-6.8s-.021-5.042-.1-6.8a12.2,12.2,0,0,0-.767-4.005,8.1,8.1,0,0,0-1.9-2.923,8.039,8.039,0,0,0-2.923-1.9A12.139,12.139,0,0,0,23.3.1C21.542.016,20.982,0,16.5,0Zm0,2.97c4.4,0,4.929.022,6.669.1a9.091,9.091,0,0,1,3.062.571,5.43,5.43,0,0,1,3.132,3.131,9.11,9.11,0,0,1,.568,3.062c.078,1.741.1,2.263.1,6.669s-.021,4.929-.1,6.669a9.285,9.285,0,0,1-.579,3.062,5.239,5.239,0,0,1-1.236,1.9,5.148,5.148,0,0,1-1.9,1.232,9.177,9.177,0,0,1-3.073.568c-1.752.078-2.267.1-6.681.1s-4.931-.021-6.681-.1A9.356,9.356,0,0,1,6.7,29.347a5.11,5.11,0,0,1-1.9-1.236,5.01,5.01,0,0,1-1.237-1.9,9.364,9.364,0,0,1-.578-3.073c-.062-1.733-.084-2.267-.084-6.66s.022-4.931.084-6.684a9.353,9.353,0,0,1,.578-3.072,4.891,4.891,0,0,1,1.237-1.9A4.88,4.88,0,0,1,6.7,3.59a9.132,9.132,0,0,1,3.054-.579c1.753-.062,2.269-.082,6.681-.082l.062.041Zm0,5.057A8.473,8.473,0,1,0,24.973,16.5,8.472,8.472,0,0,0,16.5,8.027ZM16.5,22A5.5,5.5,0,1,1,22,16.5,5.5,5.5,0,0,1,16.5,22ZM27.288,7.693a1.98,1.98,0,1,1-1.98-1.979A1.981,1.981,0,0,1,27.288,7.693Z" fill="#acacac"/>
</svg>
