<svg xmlns="http://www.w3.org/2000/svg" width="33" height="33" viewBox="0 0 33 33">
  <path id="Icon_awesome-linkedin" data-name="Icon awesome-linkedin" d="M30.643,2.25H2.35A2.367,2.367,0,0,0,0,4.629V32.871A2.367,2.367,0,0,0,2.35,35.25H30.643A2.374,2.374,0,0,0,33,32.871V4.629A2.374,2.374,0,0,0,30.643,2.25ZM9.974,30.536H5.083V14.787h4.9V30.536Zm-2.446-17.9A2.836,2.836,0,1,1,10.364,9.8a2.837,2.837,0,0,1-2.836,2.836Zm20.78,17.9H23.417V22.875c0-1.827-.037-4.177-2.541-4.177-2.549,0-2.939,1.989-2.939,4.044v7.793H13.045V14.787h4.692v2.151H17.8A5.152,5.152,0,0,1,22.437,14.4c4.95,0,5.871,3.263,5.871,7.506Z" transform="translate(0 -2.25)" fill="#acacac"/>
</svg>
