<svg xmlns="http://www.w3.org/2000/svg" width="33" height="33" viewBox="0 0 33 33">
  <path id="Icon_metro-twitter" data-name="Icon metro-twitter" d="M35.571,8.724a11.627,11.627,0,0,1-3.888,1.312,8.278,8.278,0,0,0,2.977-4.609,12.144,12.144,0,0,1-4.3,2.022,6.252,6.252,0,0,0-4.942-2.631c-3.739,0-6.77,3.73-6.77,8.331a10.211,10.211,0,0,0,.175,1.9C13.2,14.7,8.207,11.382,4.868,6.342a9.8,9.8,0,0,0-.917,4.188,8.965,8.965,0,0,0,3.012,6.934A5.816,5.816,0,0,1,3.9,16.423c0,.035,0,.07,0,.1,0,4.036,2.334,7.4,5.431,8.169a5.551,5.551,0,0,1-3.058.143c.862,3.31,3.362,5.718,6.325,5.785a12.077,12.077,0,0,1-8.408,3.566,11.194,11.194,0,0,1-1.615-.117,16.671,16.671,0,0,0,10.378,3.743c12.453,0,19.263-12.694,19.263-23.7q0-.542-.02-1.078a15.918,15.918,0,0,0,3.378-4.312Z" transform="translate(-2.571 -4.817)" fill="#acacac"/>
</svg>
